<svg xmlns="http://www.w3.org/2000/svg" width="76.969" height="87.041" viewBox="0 0 76.969 87.041"><defs><style>.a{fill:#030247;}</style></defs><path class="a" d="M3352.64,4286.63c.432.242.85.513,1.3.721q18.021,8.352,36.054,16.682a1.116,1.116,0,0,1,.784,1.188q-.036,14.624,0,29.248a1.093,1.093,0,0,1-.651,1.128c-1.467.78-2.907,1.611-4.529,2.519v-1.123c0-9.381-.013-18.762.022-28.143a1.446,1.446,0,0,0-.983-1.579q-14.385-6.609-28.739-13.287c-.3-.138-.607-.252-1.015-.42v1.1q0,14.369.018,28.738a1.6,1.6,0,0,1-.806,1.482,2.589,2.589,0,0,1-3.479,0,1.8,1.8,0,0,1-.921-1.673c.031-9.579.02-19.158.02-28.738v-1.143l-6.095,2.47-1.964-4.794c1.536-.63,3.019-1.226,4.493-1.844,2-.839,3.992-1.693,5.987-2.54Z" transform="translate(-3313.806 -4286.63)"/><path class="a" d="M3374.194,4344.533c-2.524,1.422-4.938,2.783-7.352,4.142q-6.918,3.893-13.833,7.79a1.071,1.071,0,0,1-1.229.066q-10.35-6.013-20.726-11.983a3.276,3.276,0,0,1-.267-.206c.253-.161.474-.312.7-.445q10.071-5.82,20.135-11.65a1.228,1.228,0,0,1,1.443,0q10.119,5.9,20.267,11.761C3373.578,4344.148,3373.814,4344.3,3374.194,4344.533Z" transform="translate(-3313.806 -4286.63)"/><path class="a" d="M3349.671,4373.671c-1.972-1.135-3.808-2.189-5.642-3.248q-14.706-8.491-29.421-16.969a1.372,1.372,0,0,1-.781-1.4c.03-3.542.014-7.084.014-10.625v-.971c.37.187.642.309.9.457q17.133,9.893,34.269,19.779a1.181,1.181,0,0,1,.716,1.18c-.032,3.655-.015,7.31-.017,10.966C3349.708,4373.062,3349.689,4373.283,3349.671,4373.671Z" transform="translate(-3313.806 -4286.63)"/><path class="a" d="M3390.758,4341.031c0,3.933.015,7.753-.031,11.573,0,.275-.407.629-.707.8q-8.4,4.882-16.829,9.728-8.674,5.008-17.348,10.017c-.265.153-.54.288-.9.48-.028-.263-.062-.442-.062-.621,0-3.74.005-7.479-.013-11.218a.916.916,0,0,1,.527-.936q17.468-9.8,34.923-19.631C3390.411,4341.174,3390.516,4341.138,3390.758,4341.031Z" transform="translate(-3313.806 -4286.63)"/><path class="a" d="M3362.508,4311.571l5.477,2.723c1.724.857,3.454,1.7,5.162,2.585a1.055,1.055,0,0,1,.552.7c.03,6.827.024,13.655.024,20.574-.259-.122-.46-.2-.643-.306-3.334-1.926-6.673-3.843-9.987-5.8a1.353,1.353,0,0,1-.618-.944c-.036-6.348-.026-12.7-.023-19.045C3362.452,4311.942,3362.477,4311.831,3362.508,4311.571Z" transform="translate(-3313.806 -4286.63)"/><path class="a" d="M3318.99,4326.134v11.433a38.8,38.8,0,0,0-3.518-1.983,2.507,2.507,0,0,1-1.652-2.869c.147-2.165.038-4.347.038-6.581Z" transform="translate(-3313.806 -4286.63)"/><path class="a" d="M3315.257,4302.249l7.849-3.2,1.962,4.8-7.851,3.2Z" transform="translate(-3313.806 -4286.63)"/><path class="a" d="M3336.6,4293.471l1.962,4.8-7.851,3.2-1.961-4.807Z" transform="translate(-3313.806 -4286.63)"/><path class="a" d="M3319.168,4311.739v8.349h-5.086v-8.349Z" transform="translate(-3313.806 -4286.63)"/></svg>