<svg xmlns="http://www.w3.org/2000/svg" width="89.638" height="84.811" viewBox="0 0 89.638 84.811"><defs><style>.a{fill:#3600e0;}</style></defs><path class="a" d="M3910.011,4329.307v26.081a4.11,4.11,0,0,1-2.525,2.584q-9.807,4.5-19.58,9.079a4.1,4.1,0,0,1-3.755,0c-6.015-2.814-12.06-5.565-18.078-8.373a1.9,1.9,0,0,0-1.794.018c-6.019,2.805-12.06,5.564-18.075,8.377a4.03,4.03,0,0,1-3.677,0q-9.888-4.639-19.816-9.194a3.587,3.587,0,0,1-2.337-3.609q.047-11.9,0-23.805a3.586,3.586,0,0,1,2.321-3.62c5.906-2.7,11.783-5.47,17.691-8.169a1.257,1.257,0,0,0,.85-1.369c-.025-7.089,0-14.178-.031-21.267a3.642,3.642,0,0,1,2.345-3.7q9.933-4.545,19.816-9.195a4.018,4.018,0,0,1,3.675,0q9.887,4.64,19.816,9.193a3.643,3.643,0,0,1,2.338,3.7c-.036,7.118-.006,14.236-.033,21.354a1.145,1.145,0,0,0,.78,1.239c5.851,2.683,11.681,5.412,17.533,8.094A4.112,4.112,0,0,1,3910.011,4329.307Zm-6.139,5.38c-.214.067-.327.089-.428.135-4.6,2.113-9.206,4.236-13.821,6.328a.924.924,0,0,0-.571,1.026q.014,8.4.009,16.8c0,.242.039.484.067.8,4.863-2.256,9.621-4.454,14.361-6.688a1.057,1.057,0,0,0,.416-.817c.024-5.659.018-11.317.016-16.975C3903.921,4335.126,3903.894,4334.954,3903.872,4334.687Zm-41.745-9.438c.026-.213.046-.3.046-.386,0-5.776-.007-11.552.02-17.327,0-.576-.3-.747-.71-.936q-6.636-3.033-13.267-6.075c-.255-.117-.52-.214-.837-.344a4.55,4.55,0,0,0-.064.508c0,5.718.008,11.435-.021,17.153,0,.593.33.732.73.918q6.662,3.083,13.32,6.17C3861.574,4325.037,3861.815,4325.122,3862.127,4325.249Zm6.094.009c.255-.087.393-.12.519-.179,4.6-2.133,9.187-4.279,13.795-6.388.519-.238.558-.565.557-1.025q-.011-8.314-.006-16.628c0-.253-.026-.507-.042-.8a1.9,1.9,0,0,0-.385.074c-4.661,2.134-9.324,4.263-13.968,6.434a1.153,1.153,0,0,0-.45.882c-.036,2.509-.02,5.017-.02,7.526Zm-41.746,9.384v.966c0,5.483.012,10.966-.017,16.449a1.152,1.152,0,0,0,.8,1.235c4.4,2.01,8.774,4.058,13.159,6.091.274.127.56.229.87.355a3.455,3.455,0,0,0,.052-.373c0-5.774-.008-11.549.022-17.323,0-.633-.357-.783-.785-.979l-13.184-6.039C3827.132,4334.906,3826.868,4334.806,3826.475,4334.642Zm35.662.1c-.2.069-.337.1-.46.159-4.581,2.09-9.157,4.192-13.748,6.26-.519.234-.556.567-.555,1.027q.012,8.44.008,16.88c0,.212.042.424.07.689.322-.136.563-.23.8-.338,4.387-2.024,8.768-4.064,13.168-6.06a1.151,1.151,0,0,0,.773-1.253c-.024-5.481-.013-10.962-.015-16.443C3862.176,4335.383,3862.153,4335.1,3862.137,4334.742Zm20.831,25a3.973,3.973,0,0,0,.048-.4c0-5.772-.008-11.544.02-17.316,0-.584-.309-.737-.719-.924q-6.675-3.04-13.346-6.088c-.218-.1-.451-.166-.75-.275,0,5.984-.009,11.842.029,17.7a1.231,1.231,0,0,0,.656.838c4.453,2.09,8.922,4.144,13.388,6.2C3882.5,4359.578,3882.711,4359.644,3882.968,4359.741Zm-31.345-64.444a2.211,2.211,0,0,0,.3.237c4.283,1.974,8.563,3.953,12.861,5.894a1.439,1.439,0,0,0,1.039-.1c4.11-1.861,8.209-3.748,12.308-5.631.194-.089.373-.21.6-.342a2.136,2.136,0,0,0-.275-.2q-6.416-2.981-12.838-5.944a1.085,1.085,0,0,0-.8-.014C3860.45,4291.2,3856.095,4293.225,3851.623,4295.3Zm6.191,34.686c-4.558-2.113-8.909-4.143-13.28-6.129a1.548,1.548,0,0,0-1.129.1c-3.971,1.814-7.928,3.66-11.887,5.5-.223.1-.432.235-.7.381a2.242,2.242,0,0,0,.279.195c4.282,1.974,8.562,3.954,12.859,5.9a1.446,1.446,0,0,0,1.037-.1c2.738-1.221,5.462-2.474,8.189-3.719C3854.661,4331.431,3856.135,4330.753,3857.814,4329.983Zm41.849-.11c-.264-.156-.356-.221-.457-.267-4.118-1.912-8.231-3.834-12.366-5.71a1.639,1.639,0,0,0-1.208.055c-4.078,1.86-8.138,3.758-12.2,5.649-.22.1-.431.226-.692.363a1.711,1.711,0,0,0,.261.21c4.207,1.927,8.412,3.859,12.632,5.757a1.347,1.347,0,0,0,.962-.067c1.335-.577,2.649-1.2,3.971-1.812Z" transform="translate(-3820.373 -4282.701)"/></svg>