<svg xmlns="http://www.w3.org/2000/svg" width="78.208" height="79.986" viewBox="0 0 78.208 79.986"><defs><style>.a{fill:#3600e0;}</style></defs><g transform="translate(-3306.89 -6102.224)"><path class="a" d="M3306.89,6153.7v-43.38a1.658,1.658,0,0,0,.114-.28c1.088-5.061,4.5-7.815,9.676-7.815q29.477,0,58.953,0a9.15,9.15,0,0,1,9.459,9.432q.014,20.35-.006,40.7a10.274,10.274,0,0,1-.23,2.269,9.13,9.13,0,0,1-9.223,7.163q-29.4.007-58.8,0c-.356,0-.713.007-1.068-.01a9.118,9.118,0,0,1-7.011-3.632A10.534,10.534,0,0,1,3306.89,6153.7Zm39.026,1.985h29.477c2.427,0,3.592-1.172,3.592-3.609q0-20.046,0-40.093c0-2.491-1.151-3.648-3.629-3.648H3316.63c-2.478,0-3.63,1.157-3.63,3.648V6152c0,2.544,1.137,3.687,3.668,3.687Z"/><path class="a" d="M3306.89,6172.893c4.913,0,9.825-.006,14.737.01a1.172,1.172,0,0,0,1.07-.528,6.067,6.067,0,0,1,9.582-.057,1.326,1.326,0,0,0,1.194.587q25.314-.022,50.627-.012h.949V6179h-.922q-25.124,0-50.245-.013a1.51,1.51,0,0,0-1.494.727,5.647,5.647,0,0,1-3.469,2.326c-.167.043-.328.111-.492.167h-1.833c-.164-.056-.324-.124-.492-.167a5.919,5.919,0,0,1-3.608-2.5,1.072,1.072,0,0,0-1.04-.552c-4.855.018-9.709.011-14.564.011Z"/><path class="a" d="M3333.819,6116.205l27.748,16.035-27.748,16.035Z"/></g></svg>