<svg xmlns="http://www.w3.org/2000/svg" width="70.491" height="90.113" viewBox="0 0 70.491 90.113"><defs><style>.a{fill:#030247;}</style></defs><g transform="translate(-3823.027 -6095.617)"><path class="a" d="M3871.13,6095.617a3.262,3.262,0,0,1,2.088,3.56c-.07,1.7,0,3.4-.019,5.1a2.8,2.8,0,0,1-3.121,3.093c-1.581.013-3.163,0-4.892,0v3.529c0,2.322.015,2.27,2.262,2.9a40.523,40.523,0,0,1,4.555,1.584c1.483.616,2.9,1.389,4.461,2.149l2.9-3.052c.545-.574,1.073-1.165,1.64-1.717a2.649,2.649,0,0,1,3.8-.126c1.143,1.008,2.251,2.06,3.321,3.145a2.667,2.667,0,0,1-.034,3.932c-1.273,1.379-2.578,2.727-3.893,4.115.986,1.281,2.017,2.509,2.926,3.822a33.558,33.558,0,0,1,6.008,24.753c-2.094,13.961-9.975,23.423-23.093,28.536a1.363,1.363,0,0,0-1.081,1.546c.064,2.841-.375,3.237-3.243,3.237q-7.258,0-14.516,0c-1.849,0-2.541-.694-2.554-2.543-.01-1.52-.023-1.483-1.476-2.009-12.527-4.539-20.517-13.262-23.3-26.285-2.4-11.206.428-21.306,7.8-30.1.262-.312.526-.624.869-1.031-1.034-.98-2-1.994-3.068-2.889-2.271-1.907-2.541-3.577-.184-5.764.751-.7,1.408-1.494,2.133-2.219a2.674,2.674,0,0,1,3.992-.093c1.508,1.392,2.971,2.833,4.484,4.221a.984.984,0,0,0,.854.219,37.107,37.107,0,0,1,10.391-3.938,1.037,1.037,0,0,0,.238-.128v-5.792c-1.233,0-2.425,0-3.618,0-2.225-.009-3.229-1.007-3.236-3.219-.005-1.642.075-3.288-.022-4.925a3.316,3.316,0,0,1,1.992-3.613Zm-12.8,23.253a28.9,28.9,0,1,0,28.85,29.028A28.944,28.944,0,0,0,3858.326,6118.87Z"/><path class="a" d="M3854.352,6147.638a4.381,4.381,0,0,1,2.67-3.867c4.169-1.849,8.392-3.579,12.607-5.32a9.959,9.959,0,0,1,2.126-.526,1.064,1.064,0,0,1,.868.176.967.967,0,0,1-.095.873c-1.168,1.68-2.29,3.4-3.595,4.972-2.041,2.454-4.209,4.8-6.334,7.188a4.719,4.719,0,0,1-5.3,1.251A4.848,4.848,0,0,1,3854.352,6147.638Z"/><path class="a" d="M3874.731,6127.607l2.92,2.941-4.335,4.344-2.93-2.947Z"/><path class="a" d="M3840.824,6167.209,3838,6164.39l4.251-4.292,2.809,2.84Z"/><path class="a" d="M3860.843,6127.785h-4.266v-6.192h4.266Z"/><path class="a" d="M3876,6149.32v-4.172h6.168v4.172Z"/><path class="a" d="M3868.842,6161.311l2.8-2.806,4.272,4.289-2.8,2.792Z"/><path class="a" d="M3846.735,6133.5l-2.843,2.819-4.235-4.228,2.83-2.845Z"/><path class="a" d="M3835.252,6149.325v-4.165h6.127v4.165Z"/><path class="a" d="M3860.851,6172.892h-4.273v-6.114h4.273Z"/></g></svg>