<svg xmlns="http://www.w3.org/2000/svg" width="52.652" height="52.651" viewBox="0 0 52.652 52.651"><defs><style>.a{fill:#fff;}.b{fill:#3600e0;}</style></defs><g transform="translate(-3651.846 -14146.992)"><path class="a" d="M3678.172,14199.644h0a26.325,26.325,0,0,1-26.326-26.325h0a26.326,26.326,0,0,1,26.326-26.326h0a26.326,26.326,0,0,1,26.326,26.326h0A26.326,26.326,0,0,1,3678.172,14199.644Z"/><rect class="b" width="5.449" height="17.602" transform="translate(3666.234 14167.449)"/><path class="b" d="M3668.933,14165.144a3.248,3.248,0,1,0-3.222-3.247A3.234,3.234,0,0,0,3668.933,14165.144Z"/><path class="b" d="M3680.393,14175.811c0-2.474,1.138-3.948,3.319-3.948,2,0,2.966,1.415,2.966,3.948v9.24h5.423v-11.145c0-4.715-2.672-6.994-6.4-6.994a6.137,6.137,0,0,0-5.3,2.908v-2.371h-5.227v17.6h5.227Z"/></g></svg>