<svg xmlns="http://www.w3.org/2000/svg" width="52.652" height="52.651" viewBox="0 0 52.652 52.651"><defs><style>.a{fill:#2fe6b0;}.b{fill:#3600e0;}</style></defs><g transform="translate(-3798.197 -14146.992)"><path class="a" d="M3824.523,14199.644h0a26.325,26.325,0,0,1-26.326-26.325h0a26.325,26.325,0,0,1,26.326-26.326h0a26.326,26.326,0,0,1,26.326,26.326h0A26.326,26.326,0,0,1,3824.523,14199.644Z"/><path class="b" d="M3824.523,14161.484c3.854,0,4.311.015,5.833.084a7.978,7.978,0,0,1,2.68.5,4.77,4.77,0,0,1,2.739,2.739,8,8,0,0,1,.5,2.681c.069,1.521.084,1.979.084,5.833s-.015,4.311-.084,5.833a7.993,7.993,0,0,1-.5,2.68,4.77,4.77,0,0,1-2.739,2.739,8.022,8.022,0,0,1-2.68.5c-1.522.068-1.978.083-5.833.083s-4.311-.015-5.833-.083a8.018,8.018,0,0,1-2.68-.5,4.777,4.777,0,0,1-2.74-2.739,8.025,8.025,0,0,1-.5-2.68c-.069-1.522-.084-1.979-.084-5.833s.015-4.312.084-5.833a8.027,8.027,0,0,1,.5-2.681,4.777,4.777,0,0,1,2.74-2.739,7.974,7.974,0,0,1,2.68-.5c1.522-.069,1.979-.084,5.833-.084m0-2.6c-3.92,0-4.412.018-5.952.087a10.6,10.6,0,0,0-3.5.671,7.379,7.379,0,0,0-4.222,4.223,10.586,10.586,0,0,0-.671,3.5c-.07,1.54-.087,2.032-.087,5.952s.017,4.412.087,5.95a10.593,10.593,0,0,0,.671,3.5,7.382,7.382,0,0,0,4.222,4.222,10.63,10.63,0,0,0,3.5.671c1.54.07,2.032.086,5.952.086s4.411-.016,5.951-.086a10.632,10.632,0,0,0,3.5-.671,7.382,7.382,0,0,0,4.222-4.222,10.618,10.618,0,0,0,.671-3.5c.07-1.538.086-2.03.086-5.95s-.016-4.412-.086-5.952a10.61,10.61,0,0,0-.671-3.5,7.38,7.38,0,0,0-4.222-4.223,10.607,10.607,0,0,0-3.5-.671c-1.54-.069-2.031-.087-5.951-.087"/><path class="b" d="M3824.523,14165.906a7.412,7.412,0,1,0,7.412,7.412,7.412,7.412,0,0,0-7.412-7.412m0,12.223a4.812,4.812,0,1,1,4.811-4.811,4.811,4.811,0,0,1-4.811,4.811"/><path class="b" d="M3833.96,14165.612a1.732,1.732,0,1,1-1.732-1.732,1.732,1.732,0,0,1,1.732,1.732"/></g></svg>
