<svg xmlns="http://www.w3.org/2000/svg" width="52.652" height="52.652" viewBox="0 0 52.652 52.652"><defs><style>.a{fill:#fff;}.b{fill:#3600e0;fill-rule:evenodd;}</style></defs><g transform="translate(-3725.021 -14146.991)"><rect class="a" width="52.652" height="52.652" rx="26.326" transform="translate(3725.021 14146.991)"/><path class="b" d="M3765.781,14172.587a14.181,14.181,0,0,0-28.336-.258c-.006.205-.013.411-.013.617a13.962,13.962,0,0,0,2.031,7.268l-2.555,7.547,7.852-2.5a14.2,14.2,0,0,0,21.027-12.318C3765.787,14172.826,3765.787,14172.707,3765.781,14172.587Zm-14.171,12.188a11.88,11.88,0,0,1-6.558-1.958l-4.58,1.46,1.487-4.395a11.71,11.71,0,0,1-2.27-6.936,11.192,11.192,0,0,1,.059-1.148,11.926,11.926,0,0,1,23.743.226c.026.306.039.61.039.923A11.887,11.887,0,0,1,3751.61,14184.774Z"/><path class="b" d="M3758.108,14175.787c-.352-.173-2.058-1.009-2.376-1.122s-.552-.173-.784.173-.9,1.121-1.1,1.347-.4.26-.756.087a9.4,9.4,0,0,1-2.794-1.713,10.29,10.29,0,0,1-1.932-2.383c-.2-.345-.02-.531.153-.7s.345-.4.524-.6c.047-.062.086-.114.126-.166a3.952,3.952,0,0,0,.219-.412.623.623,0,0,0-.026-.6c-.087-.173-.784-1.871-1.076-2.562s-.577-.571-.783-.571-.431-.032-.664-.032a1.286,1.286,0,0,0-.929.431,3.865,3.865,0,0,0-1.215,2.881,4.392,4.392,0,0,0,.18,1.175,7.84,7.84,0,0,0,1.241,2.39c.172.226,2.4,3.822,5.934,5.211s3.537.916,4.175.855a3.466,3.466,0,0,0,2.343-1.64,2.847,2.847,0,0,0,.205-1.64C3758.685,14176.046,3758.453,14175.959,3758.108,14175.787Z"/></g></svg>