<svg xmlns="http://www.w3.org/2000/svg" width="361.666" height="137.23" viewBox="0 0 361.666 137.23"><defs><style>.a{fill:#fff;}</style></defs><g transform="translate(-3123.446 -14212.005)"><path class="a" d="M3276.185,14274.065v6.766h10.127v3.493h-10.127v8.512h-3.9V14270.6H3287.6v3.463Z"/><path class="a" d="M3292.811,14281.72a11.3,11.3,0,1,1,11.3,11.435A11.046,11.046,0,0,1,3292.811,14281.72Zm18.667,0c0-4.542-3.146-7.813-7.371-7.813s-7.371,3.271-7.371,7.813,3.146,7.813,7.371,7.813S3311.478,14286.262,3311.478,14281.72Z"/><path class="a" d="M3336.432,14292.836l-4.285-6.511a6.8,6.8,0,0,1-.809.032H3326.6v6.479h-3.894V14270.6h8.629c5.514,0,8.93,2.986,8.93,7.909a7.115,7.115,0,0,1-4.465,7.02l4.823,7.3Zm-5.274-18.739H3326.6v8.862h4.555c3.416,0,5.184-1.652,5.184-4.447S3334.574,14274.1,3331.158,14274.1Z"/><path class="a" d="M3367.05,14292.836l-.03-14.737-6.892,12.2h-1.738l-6.891-12.006v14.547h-3.716V14270.6h3.205l8.331,14.738,8.181-14.738h3.205l.03,22.233Z"/><path class="a" d="M3393.171,14287.69h-10.488l-2.067,5.146H3376.6l9.439-22.233h3.836l9.468,22.233h-4.075Zm-1.289-3.239-3.955-9.719-3.925,9.719Z"/><path class="a" d="M3408.388,14274.1h-6.953v-3.494h17.8v3.494h-6.953v18.739h-3.894Z"/><path class="a" d="M3425.343,14270.6h3.9v22.233h-3.9Z"/><path class="a" d="M3436.576,14281.72a11.3,11.3,0,1,1,11.3,11.435A11.047,11.047,0,0,1,3436.576,14281.72Zm18.667,0c0-4.542-3.146-7.813-7.37-7.813s-7.372,3.271-7.372,7.813,3.146,7.813,7.372,7.813S3455.243,14286.262,3455.243,14281.72Z"/><path class="a" d="M3485.112,14270.6v22.233h-3.206l-11.567-15.055v15.055h-3.865V14270.6h3.2l11.567,15.056V14270.6Z"/><path class="a" d="M3172.532,14288.724c0,6.167-4.518,9.734-13.177,9.734h-17.034v-35.677h16.093c8.236,0,12.471,3.721,12.471,9.275a8.685,8.685,0,0,1-4.377,7.85C3170.179,14281.18,3172.532,14284.238,3172.532,14288.724ZM3149.9,14269v8.41h7.576c3.718,0,5.742-1.427,5.742-4.23s-2.024-4.18-5.742-4.18Zm14.964,18.858c0-3.008-2.117-4.435-6.07-4.435H3149.9v8.817h8.894C3162.744,14292.24,3164.861,14290.915,3164.861,14287.857Z"/><path class="a" d="M3183.778,14262.781h7.624v35.677h-7.624Z"/><path class="a" d="M3234.648,14298.458l-.048-21.406-9.693,17.635h-3.436l-9.647-17.176v20.947h-7.153v-35.677h6.306l12.329,22.171,12.142-22.171h6.259l.094,35.677Z"/><path class="a" d="M3260.676,14349.235h-137.23V14212h137.23Zm-129.468-7.763h121.706v-121.706H3131.208Z"/></g></svg>