<svg xmlns="http://www.w3.org/2000/svg" width="36.107" height="36.107" viewBox="0 0 36.107 36.107"><defs><style>.a{fill:#fff;}</style></defs><g transform="translate(-2075.67 -6484.181)"><path class="a" d="M2093.723,6487.434c4.821,0,5.392.018,7.3.1a10.008,10.008,0,0,1,3.352.622,5.982,5.982,0,0,1,3.426,3.426,9.969,9.969,0,0,1,.622,3.353c.087,1.9.1,2.474.1,7.295s-.018,5.391-.1,7.295a9.956,9.956,0,0,1-.622,3.352,5.979,5.979,0,0,1-3.426,3.427,10.008,10.008,0,0,1-3.352.622c-1.9.086-2.474.1-7.3.1s-5.391-.018-7.295-.1a10.008,10.008,0,0,1-3.352-.622,5.979,5.979,0,0,1-3.426-3.427,10.007,10.007,0,0,1-.622-3.352c-.087-1.9-.1-2.474-.1-7.295s.018-5.392.1-7.295a10.02,10.02,0,0,1,.622-3.353,5.982,5.982,0,0,1,3.426-3.426,10.008,10.008,0,0,1,3.352-.622c1.9-.087,2.475-.1,7.295-.1m0-3.253c-4.9,0-5.517.021-7.443.109a13.263,13.263,0,0,0-4.382.839,9.226,9.226,0,0,0-5.28,5.28,13.249,13.249,0,0,0-.839,4.382c-.088,1.926-.109,2.541-.109,7.444s.021,5.518.109,7.443a13.25,13.25,0,0,0,.839,4.383,9.235,9.235,0,0,0,5.28,5.28,13.262,13.262,0,0,0,4.382.839c1.926.088,2.54.108,7.443.108s5.518-.02,7.444-.108a13.263,13.263,0,0,0,4.382-.839,9.235,9.235,0,0,0,5.28-5.28,13.272,13.272,0,0,0,.84-4.383c.087-1.925.108-2.54.108-7.443s-.021-5.518-.108-7.444a13.271,13.271,0,0,0-.84-4.382,9.226,9.226,0,0,0-5.28-5.28,13.265,13.265,0,0,0-4.382-.839c-1.926-.088-2.54-.109-7.444-.109"/><path class="a" d="M2093.723,6492.964a9.271,9.271,0,1,0,9.271,9.271,9.271,9.271,0,0,0-9.271-9.271m0,15.289a6.018,6.018,0,1,1,6.018-6.018,6.018,6.018,0,0,1-6.018,6.018"/><path class="a" d="M2105.527,6492.6a2.167,2.167,0,1,1-2.166-2.167,2.167,2.167,0,0,1,2.166,2.167"/></g></svg>