<svg xmlns="http://www.w3.org/2000/svg" width="282.51" height="107.195" viewBox="0 0 282.51 107.195"><defs><style>.a{fill:#383838;}.b{fill:#2fe6b0;}</style></defs><g transform="translate(-1572.622 -60.759)"><path class="a" d="M1691.932,109.237v5.284h7.911v2.729h-7.911V123.9h-3.043V106.532h11.961v2.705Z"/><path class="a" d="M1704.919,115.216a8.825,8.825,0,1,1,8.824,8.931A8.63,8.63,0,0,1,1704.919,115.216Zm14.582,0a5.768,5.768,0,1,0-5.758,6.1A5.758,5.758,0,0,0,1719.5,115.216Z"/><path class="a" d="M1738.993,123.9l-3.347-5.086a5.335,5.335,0,0,1-.631.025h-3.7V123.9h-3.043V106.532h6.742c4.306,0,6.974,2.333,6.974,6.178a5.557,5.557,0,0,1-3.487,5.483l3.768,5.706Zm-4.12-14.638h-3.557v6.923h3.557c2.669,0,4.05-1.291,4.05-3.474S1737.542,109.261,1734.873,109.261Z"/><path class="a" d="M1762.91,123.9l-.023-11.511-5.384,9.527h-1.358l-5.383-9.379V123.9h-2.9V106.532h2.5l6.507,11.512,6.391-11.512h2.5l.024,17.367Z"/><path class="a" d="M1783.314,119.88h-8.193l-1.614,4.019h-3.137l7.373-17.367h3l7.4,17.367h-3.184Zm-1.007-2.53-3.089-7.592-3.067,7.592Z"/><path class="a" d="M1795.2,109.261h-5.43v-2.729h13.9v2.729h-5.43V123.9H1795.2Z"/><path class="a" d="M1808.444,106.532h3.043V123.9h-3.043Z"/><path class="a" d="M1817.219,115.216a8.825,8.825,0,1,1,8.825,8.931A8.63,8.63,0,0,1,1817.219,115.216Zm14.582,0a5.768,5.768,0,1,0-5.757,6.1A5.758,5.758,0,0,0,1831.8,115.216Z"/><path class="a" d="M1855.132,106.532V123.9h-2.5l-9.036-11.759V123.9h-3.018V106.532h2.5l9.036,11.76v-11.76Z"/><path class="a" d="M1610.965,120.687c0,4.817-3.529,7.6-10.292,7.6h-13.307V100.422h12.571c6.434,0,9.742,2.907,9.742,7.246a6.782,6.782,0,0,1-3.419,6.131A6.832,6.832,0,0,1,1610.965,120.687Zm-17.681-15.407v6.568h5.918c2.905,0,4.485-1.114,4.485-3.3s-1.58-3.264-4.485-3.264Zm11.69,14.73c0-2.349-1.655-3.464-4.742-3.464h-6.948v6.888h6.948C1603.319,123.434,1604.974,122.4,1604.974,120.01Z"/><path class="a" d="M1619.75,100.422h5.956v27.869h-5.956Z"/><path class="a" d="M1659.486,128.291l-.037-16.721-7.572,13.775h-2.683l-7.536-13.417v16.363h-5.588V100.422H1641l9.631,17.319,9.484-17.319H1665l.074,27.869Z"/><path class="b" d="M1679.818,167.954h-107.2V60.759h107.2Zm-101.132-6.063h95.069V66.822h-95.069Z"/></g></svg>