<svg xmlns="http://www.w3.org/2000/svg" width="40.456" height="30.375" viewBox="0 0 40.456 30.375"><defs><style>.a{fill:#3600e0;}</style></defs><g transform="translate(-2337.039 -3388.948)"><path class="a" d="M2337.039,3419.323v-10.6a67.8,67.8,0,0,1,.582-9.888,12.569,12.569,0,0,1,2.326-6.01,9.051,9.051,0,0,1,5.041-3.038,37.986,37.986,0,0,1,8.983-.84v5.946a17.188,17.188,0,0,0-5.041.581,3.68,3.68,0,0,0-2.455,2.392,15.494,15.494,0,0,0-.647,5.041v2.2h6.074v14.218Zm23.524,0v-10.6a67.969,67.969,0,0,1,.582-9.888,12.591,12.591,0,0,1,2.326-6.01,9.082,9.082,0,0,1,5.1-3.038,38.142,38.142,0,0,1,8.919-.84v5.946a17.175,17.175,0,0,0-5.04.581,3.683,3.683,0,0,0-2.457,2.392,15.526,15.526,0,0,0-.646,5.041v2.2h6.076v14.218Z"/></g></svg>