<svg xmlns="http://www.w3.org/2000/svg" width="50.818" height="39.633" viewBox="0 0 50.818 39.633"><defs><style>.a{fill:#2fe6b0;}</style></defs><path class="a" d="M3926.576,8474.339v-1.687c.059-.116.128-.228.175-.348q2.352-5.917,4.69-11.839a2.963,2.963,0,0,0,.2-1.053q.016-11.118.01-22.238a3.417,3.417,0,0,1,.047-.64,1.058,1.058,0,0,1,1-.937,4.453,4.453,0,0,1,.593-.032q18.688,0,37.378,0a4.16,4.16,0,0,1,.74.055.985.985,0,0,1,.841.8,3.635,3.635,0,0,1,.076.786q.006,11.118.011,22.238a2.83,2.83,0,0,0,.193,1c1.507,3.827,3.041,7.642,4.534,11.475a5.473,5.473,0,0,1,.327,1.724c.048,1.147-.379,1.543-1.541,1.543q-23.852,0-47.7.008A1.515,1.515,0,0,1,3926.576,8474.339Zm8.459-16h33.893v-19.812h-33.893Zm12.054,13.114h9.8c-.327-1.018-.631-1.992-.964-2.957a.464.464,0,0,0-.364-.22q-3.575-.022-7.147,0c-.121,0-.319.084-.35.175C3947.73,8469.434,3947.421,8470.423,3947.089,8471.457Z" transform="translate(-3926.576 -8435.564)"/></svg>