<svg xmlns="http://www.w3.org/2000/svg" width="41.325" height="41.326" viewBox="0 0 41.325 41.326"><defs><style>.a{fill:#2fe6b0;}</style></defs><g transform="translate(-3728.116 -8435.847)"><path class="a" d="M3769.441,8455.222v2.583a2.263,2.263,0,0,0-.067.312,19.737,19.737,0,0,1-2.821,8.9,20.422,20.422,0,0,1-14.212,9.844c-.748.141-1.509.212-2.265.315h-2.582c-.13-.024-.259-.054-.39-.073-.863-.126-1.738-.2-2.588-.382a20.653,20.653,0,1,1,17.945-35.662,20.325,20.325,0,0,1,6.663,11.9C3769.257,8453.7,3769.337,8454.466,3769.441,8455.222Zm-18.942-3.971c0-1.668,0-3.336,0-5a1.714,1.714,0,1,0-3.424.036c-.007,3.618.006,7.235-.01,10.853a2.17,2.17,0,0,0,.691,1.648q4.109,4.078,8.192,8.182a4.337,4.337,0,0,0,.413.384,1.71,1.71,0,0,0,2.675-.87,1.735,1.735,0,0,0-.536-1.829q-3.84-3.833-7.679-7.668a.982.982,0,0,1-.327-.771C3750.509,8454.559,3750.5,8452.905,3750.5,8451.251Z"/></g></svg>