<svg xmlns="http://www.w3.org/2000/svg" width="181.513" height="156.096" viewBox="0 0 181.513 156.096"><defs><style>.a{fill:#fff;}.b{fill:#2fe6b0;}</style></defs><g transform="translate(-2231.419 -4527.92)"><path class="a" d="M2231.419,4651.515h10.546V4550.841c0-4.179.967-5.422,4.983-6.5,19.874-5.348,39.773-10.61,59.6-16.126,4.3-1.2,7.7,1.39,7.495,5.779-.255,5.425-.061,10.87-.061,16.411h-9.872v-11.137c-2.213.579-4.229,1.092-6.237,1.633q-22.305,6-44.613,11.982a1.567,1.567,0,0,0-1.394,1.838q.045,47.638.024,95.278v1.439h52.14v-1.872q0-41.514,0-83.028c0-4.271,1.795-6.066,6.059-6.068q30.094-.021,60.191-.039c3.466,0,5.456,1.952,5.458,5.415q.014,28.885,0,57.772c0,.443-.043.886-.071,1.412h-9.824v-54.569h-51.757V4651.5H2386.2v10H2231.419Z"/><path class="a" d="M2289.68,4593.075h-23.441v-9.766h23.441Z"/><path class="a" d="M2327.963,4593.059v-9.732h23.457v9.732Z"/><path class="a" d="M2289.736,4605.922v9.744h-23.489v-9.744Z"/><path class="a" d="M2327.97,4615.664v-9.738h23.491v9.738Z"/><path class="a" d="M2289.722,4560.753v9.7h-23.469v-9.7Z"/><path class="a" d="M2289.709,4638.235H2266.24V4628.5h23.469Z"/><path class="a" d="M2351.491,4628.534v9.668h-23.467v-9.668Z"/><path class="b" d="M2397.682,4660.362a5.068,5.068,0,0,1,.6.431q5.3,5.29,10.6,10.59c.846.847.852,1.425.018,2.261q-3.168,3.172-6.341,6.339c-.812.811-1.4.805-2.218-.015q-5.3-5.3-10.591-10.6c-.146-.146-.265-.32-.469-.571-.167.317-.279.522-.383.73q-3.359,6.716-6.718,13.429a2.64,2.64,0,0,1-.455.71,1.2,1.2,0,0,1-2-.565c-.809-2-1.6-4-2.4-6l-17.9-44.762c-.056-.14-.11-.281-.167-.421a1.16,1.16,0,0,1,.263-1.356,1.176,1.176,0,0,1,1.362-.239q2.445.979,4.893,1.954,22.932,9.174,45.863,18.35c.088.035.174.076.263.106a1.277,1.277,0,0,1,1.031,1.2,1.315,1.315,0,0,1-.907,1.243q-5.427,2.7-10.845,5.42C2400.069,4659.161,2398.961,4659.72,2397.682,4660.362Z"/></g></svg>