<svg xmlns="http://www.w3.org/2000/svg" width="148.259" height="150.243" viewBox="0 0 148.259 150.243"><defs><style>.a{fill:#fff;stroke-miterlimit:10;}.b{fill:#2fe6b0;}.c,.d{stroke:none;}.d{fill:#fff;}</style></defs><g transform="translate(-1716.555 -4531.063)"><g class="a"><path class="c" d="M 1855.636596679688 4679.66064453125 L 1854.526611328125 4678.44580078125 C 1854.259033203125 4678.15283203125 1854.0185546875 4677.89111328125 1853.796508789063 4677.6494140625 C 1853.364990234375 4677.1796875 1852.992431640625 4676.77392578125 1852.630493164063 4676.36767578125 C 1851.545532226563 4675.15087890625 1850.460083007813 4673.9345703125 1849.37451171875 4672.71826171875 C 1845.318359375 4668.173828125 1841.1240234375 4663.474609375 1837.030639648438 4658.82275390625 C 1836.558837890625 4658.28662109375 1836.290893554688 4658.181640625 1835.987426757813 4658.181640625 C 1835.787841796875 4658.181640625 1835.5400390625 4658.232421875 1835.22998046875 4658.33740234375 C 1828.71728515625 4660.54833984375 1822.247680664063 4661.66943359375 1816.001098632813 4661.66943359375 C 1811.0869140625 4661.669921875 1806.199829101563 4660.9755859375 1801.4755859375 4659.60595703125 C 1796.7158203125 4658.2265625 1791.99560546875 4656.12451171875 1787.4462890625 4653.359375 C 1782.32080078125 4650.24365234375 1778.189697265625 4646.45068359375 1775.167846679688 4642.0859375 C 1772.1025390625 4637.65869140625 1770.111938476563 4632.546875 1769.247924804688 4626.88623046875 C 1768.561645507813 4626.79296875 1767.871459960938 4626.7041015625 1767.19970703125 4626.61767578125 C 1765.294311523438 4626.37255859375 1763.323974609375 4626.11865234375 1761.401611328125 4625.7626953125 C 1758.864501953125 4625.29345703125 1756.475952148438 4624.70068359375 1754.302490234375 4624.001953125 C 1753.967651367188 4623.89404296875 1753.68701171875 4623.841796875 1753.444213867188 4623.841796875 C 1753.0400390625 4623.841796875 1752.642822265625 4623.97216796875 1752.017456054688 4624.6083984375 C 1748.13720703125 4628.55517578125 1744.15478515625 4632.5283203125 1740.303466796875 4636.3701171875 C 1739.082763671875 4637.587890625 1737.862060546875 4638.8056640625 1736.642456054688 4640.02490234375 C 1736.42041015625 4640.24658203125 1736.190185546875 4640.46484375 1735.898559570313 4640.7412109375 C 1735.7421875 4640.8896484375 1735.565185546875 4641.0576171875 1735.357299804688 4641.25634765625 L 1734.277465820313 4642.2890625 L 1734.277465820313 4640.794921875 L 1734.277465820313 4639.06005859375 C 1734.277465820313 4637.15673828125 1734.2763671875 4635.25390625 1734.275268554688 4633.3505859375 C 1734.271484375 4627.20068359375 1734.267700195313 4620.84130859375 1734.304565429688 4614.5849609375 C 1734.309204101563 4613.74951171875 1734.074096679688 4613.24951171875 1733.406127929688 4612.67333984375 C 1729.42529296875 4609.240234375 1726.139404296875 4605.4736328125 1723.639282226563 4601.47802734375 C 1720.980224609375 4597.228515625 1719.124755859375 4592.58544921875 1718.124389648438 4587.67724609375 C 1715.438110351563 4574.498046875 1718.583374023438 4562.4453125 1727.472900390625 4551.853515625 C 1731.669921875 4546.853515625 1736.66357421875 4542.71875 1742.315307617188 4539.56494140625 C 1747.678100585938 4536.572265625 1753.769775390625 4534.38671875 1760.4208984375 4533.068359375 C 1765.000244140625 4532.16162109375 1769.55224609375 4531.70166015625 1773.950317382813 4531.70166015625 C 1779.903076171875 4531.70166015625 1785.754638671875 4532.54345703125 1791.342407226563 4534.20361328125 C 1796.991333007813 4535.8818359375 1802.513061523438 4538.439453125 1807.754028320313 4541.8046875 C 1812.877075195313 4545.09423828125 1817.166381835938 4548.9638671875 1820.5029296875 4553.30615234375 C 1824.0087890625 4557.86865234375 1826.559326171875 4563.07763671875 1828.083984375 4568.78857421875 C 1829.371215820313 4573.6123046875 1829.760131835938 4578.47900390625 1829.23974609375 4583.25341796875 C 1829.18798828125 4583.7275390625 1829.155151367188 4584.21240234375 1829.126220703125 4584.640625 C 1829.12548828125 4584.65234375 1829.124633789063 4584.66455078125 1829.123779296875 4584.67626953125 C 1830.032104492188 4584.9794921875 1830.94287109375 4585.26904296875 1831.827880859375 4585.55029296875 C 1834.1396484375 4586.28515625 1836.322998046875 4586.97900390625 1838.4765625 4587.89306640625 C 1843.682495117188 4590.1044921875 1848.172485351563 4592.88818359375 1851.821655273438 4596.166015625 C 1855.786865234375 4599.7275390625 1858.906982421875 4604.00244140625 1861.095336914063 4608.8720703125 C 1862.03955078125 4610.974609375 1862.58984375 4613.26171875 1863.121948242188 4615.47314453125 C 1863.359375 4616.4599609375 1863.604858398438 4617.48046875 1863.880737304688 4618.4619140625 C 1863.953369140625 4618.71923828125 1864.014526367188 4618.97802734375 1864.07373046875 4619.2275390625 C 1864.10107421875 4619.34326171875 1864.12841796875 4619.45849609375 1864.156860351563 4619.57421875 L 1864.175537109375 4619.6494140625 L 1864.175537109375 4619.72705078125 L 1864.175537109375 4625.4189453125 L 1864.175537109375 4625.47900390625 L 1864.164306640625 4625.5380859375 C 1864.091064453125 4625.9228515625 1864.018920898438 4626.31591796875 1863.949096679688 4626.6953125 C 1863.800415039063 4627.5048828125 1863.646606445313 4628.34228515625 1863.471557617188 4629.1650390625 C 1862.369995117188 4634.33447265625 1860.04931640625 4639.150390625 1856.376586914063 4643.88916015625 C 1855.959228515625 4644.427734375 1855.6767578125 4645.2373046875 1855.673583984375 4645.90380859375 C 1855.62890625 4653.92236328125 1855.631958007813 4662.0751953125 1855.635009765625 4669.9599609375 C 1855.6357421875 4671.994140625 1855.636596679688 4674.0283203125 1855.636596679688 4676.06298828125 L 1855.636596679688 4678.01513671875 L 1855.636596679688 4679.66064453125 Z M 1838.282470703125 4646.685546875 C 1839.336181640625 4646.685546875 1840.0419921875 4647.3828125 1840.539184570313 4647.99072265625 C 1841.900024414063 4649.65283203125 1843.351196289063 4651.25244140625 1844.8876953125 4652.94580078125 C 1845.196655273438 4653.2861328125 1845.510498046875 4653.6318359375 1845.828369140625 4653.98388671875 C 1845.832397460938 4653.33642578125 1845.838256835938 4652.69921875 1845.843994140625 4652.07421875 C 1845.868286132813 4649.4072265625 1845.891357421875 4646.888671875 1845.779174804688 4644.37744140625 C 1845.67919921875 4642.11083984375 1846.326782226563 4640.357421875 1847.944213867188 4638.515625 C 1856.274169921875 4629.033203125 1856.582153320313 4617.05810546875 1848.748291015625 4607.2626953125 C 1843.622314453125 4600.8544921875 1836.513427734375 4596.66552734375 1827.015380859375 4594.45703125 C 1826.90380859375 4594.43115234375 1826.809326171875 4594.41796875 1826.734497070313 4594.41796875 C 1826.631958007813 4594.41796875 1826.543334960938 4594.41796875 1826.392456054688 4594.82373046875 C 1826.010864257813 4595.849609375 1825.546752929688 4596.8896484375 1824.9736328125 4598.00244140625 C 1823.461059570313 4600.94189453125 1821.675659179688 4603.70703125 1819.667114257813 4606.22021484375 C 1817.720092773438 4608.65673828125 1815.505493164063 4610.9287109375 1813.084838867188 4612.97314453125 C 1808.50927734375 4616.837890625 1802.969848632813 4620.07568359375 1796.62060546875 4622.59521484375 C 1791.296875 4624.70751953125 1785.527465820313 4626.04248046875 1779.00830078125 4626.66943359375 C 1779.195678710938 4627.2138671875 1779.372680664063 4627.74951171875 1779.545654296875 4628.2734375 C 1780.078125 4629.88525390625 1780.5810546875 4631.40771484375 1781.266723632813 4632.82373046875 C 1784.404296875 4639.30517578125 1789.7548828125 4644.2734375 1797.169799804688 4647.58984375 C 1803.522094726563 4650.43115234375 1809.981567382813 4651.87158203125 1816.368896484375 4651.87158203125 C 1823.088500976563 4651.87158203125 1829.901000976563 4650.27734375 1836.617309570313 4647.1337890625 C 1837.270263671875 4646.828125 1837.799438476563 4646.685546875 1838.282470703125 4646.685546875 Z M 1773.80126953125 4541.51025390625 C 1770.836181640625 4541.51025390625 1767.776123046875 4541.75146484375 1764.705810546875 4542.22705078125 C 1752.372802734375 4544.13916015625 1742.504516601563 4549.37353515625 1735.375 4557.78515625 C 1726.8779296875 4567.80859375 1724.814697265625 4578.87744140625 1729.242797851563 4590.68310546875 C 1731.680786132813 4597.181640625 1736.063354492188 4602.6806640625 1742.64111328125 4607.49462890625 C 1743.703735351563 4608.27197265625 1744.144897460938 4609.166015625 1744.116333007813 4610.48291015625 C 1744.066772460938 4612.69091796875 1744.0751953125 4614.91943359375 1744.084106445313 4617.279296875 C 1744.0859375 4617.7548828125 1744.087768554688 4618.23876953125 1744.089111328125 4618.73046875 C 1744.379150390625 4618.4404296875 1744.664794921875 4618.15576171875 1744.946166992188 4617.875 C 1746.463989257813 4616.3603515625 1747.897705078125 4614.93017578125 1749.267333984375 4613.47021484375 C 1749.8271484375 4612.873046875 1750.384399414063 4612.5947265625 1751.020874023438 4612.5947265625 C 1751.374389648438 4612.5947265625 1751.74658203125 4612.68017578125 1752.192138671875 4612.86376953125 C 1759.017944335938 4615.68017578125 1766.0849609375 4617.10791015625 1773.197387695313 4617.10791015625 C 1775.84765625 4617.10791015625 1778.553588867188 4616.90966796875 1781.239990234375 4616.51806640625 C 1793.401489257813 4614.7451171875 1802.85986328125 4610.0322265625 1810.1552734375 4602.1103515625 C 1819.457153320313 4592.009765625 1821.974487304688 4580.6953125 1817.637329101563 4568.48095703125 C 1814.533203125 4559.74072265625 1808.394653320313 4552.9931640625 1798.870727539063 4547.85400390625 C 1791.069946289063 4543.64453125 1782.635375976563 4541.51025390625 1773.80126953125 4541.51025390625 Z"/><path class="d" d="M 1854.998046875 4678.01513671875 L 1854.998046875 4676.06298828125 C 1854.998046875 4666.0087890625 1854.97900390625 4655.955078125 1855.035034179688 4645.90087890625 C 1855.038940429688 4645.0908203125 1855.375 4644.13916015625 1855.871948242188 4643.498046875 C 1859.23095703125 4639.1640625 1861.698974609375 4634.419921875 1862.847045898438 4629.0322265625 C 1863.10205078125 4627.8330078125 1863.307983398438 4626.623046875 1863.536987304688 4625.4189453125 L 1863.536987304688 4619.72705078125 C 1863.447021484375 4619.36279296875 1863.368041992188 4618.99609375 1863.265991210938 4618.634765625 C 1862.373046875 4615.45703125 1861.850952148438 4612.11279296875 1860.512939453125 4609.1337890625 C 1856.030029296875 4599.158203125 1848.109985351563 4592.67919921875 1838.22705078125 4588.48095703125 C 1835.109008789063 4587.1572265625 1831.807983398438 4586.26318359375 1828.452026367188 4585.1240234375 C 1828.494018554688 4584.5810546875 1828.529052734375 4583.8798828125 1828.60498046875 4583.18408203125 C 1829.130004882813 4578.3671875 1828.712036132813 4573.6181640625 1827.467041015625 4568.953125 C 1824.378051757813 4557.3818359375 1817.321044921875 4548.70703125 1807.409057617188 4542.341796875 C 1796.921264648438 4535.60791015625 1785.720336914063 4532.33984375 1773.950317382813 4532.33984375 C 1769.558837890625 4532.33984375 1765.087280273438 4532.794921875 1760.545043945313 4533.69482421875 C 1747.670043945313 4536.24609375 1736.498046875 4542.09423828125 1727.962036132813 4552.26416015625 C 1719.35595703125 4562.51806640625 1716.056030273438 4574.3330078125 1718.75 4587.5498046875 C 1720.785034179688 4597.5341796875 1726.171997070313 4605.5908203125 1733.822998046875 4612.18994140625 C 1734.610961914063 4612.869140625 1734.948974609375 4613.52978515625 1734.942993164063 4614.5888671875 C 1734.89501953125 4622.74609375 1734.916015625 4630.90283203125 1734.916015625 4639.06005859375 L 1734.916015625 4640.794921875 C 1735.515991210938 4640.22119140625 1735.859985351563 4639.90380859375 1736.191040039063 4639.5732421875 C 1741.322998046875 4634.44384765625 1746.474975585938 4629.3349609375 1751.56201171875 4624.1611328125 C 1752.188720703125 4623.52294921875 1752.73974609375 4623.203125 1753.444213867188 4623.203125 C 1753.758178710938 4623.203125 1754.102783203125 4623.2666015625 1754.498046875 4623.39404296875 C 1756.788940429688 4624.130859375 1759.150024414063 4624.69677734375 1761.517944335938 4625.134765625 C 1764.251953125 4625.64111328125 1767.026000976563 4625.93115234375 1769.81005859375 4626.31884765625 C 1771.468017578125 4638.10400390625 1777.849975585938 4646.77880859375 1787.777954101563 4652.81396484375 C 1796.860473632813 4658.33447265625 1806.288818359375 4661.03173828125 1816.001098632813 4661.03125 C 1822.231689453125 4661.03076171875 1828.58056640625 4659.92041015625 1835.025024414063 4657.73291015625 C 1835.396606445313 4657.60693359375 1835.708984375 4657.54296875 1835.987426757813 4657.54296875 C 1836.568481445313 4657.54296875 1837.000854492188 4657.822265625 1837.510009765625 4658.40087890625 C 1842.678955078125 4664.27490234375 1847.900024414063 4670.10302734375 1853.107055664063 4675.94287109375 C 1853.649047851563 4676.55078125 1854.204956054688 4677.14697265625 1854.998046875 4678.01513671875 M 1838.282470703125 4647.32421875 C 1837.880493164063 4647.32421875 1837.431518554688 4647.45751953125 1836.887939453125 4647.7119140625 C 1830.07861328125 4650.8994140625 1823.2314453125 4652.51025390625 1816.368896484375 4652.51025390625 C 1809.889038085938 4652.509765625 1803.3955078125 4651.07373046875 1796.909057617188 4648.1728515625 C 1789.847045898438 4645.01416015625 1784.129028320313 4640.2021484375 1780.692016601563 4633.10205078125 C 1779.654052734375 4630.9580078125 1779.035034179688 4628.61083984375 1778.134033203125 4626.10791015625 C 1784.717041015625 4625.5400390625 1790.672973632813 4624.26806640625 1796.385009765625 4622.001953125 C 1808.550048828125 4617.173828125 1818.31396484375 4609.5498046875 1824.406005859375 4597.7099609375 C 1824.925048828125 4596.7021484375 1825.399047851563 4595.6630859375 1825.7939453125 4594.60107421875 C 1826.002807617188 4594.03955078125 1826.266235351563 4593.779296875 1826.734497070313 4593.779296875 C 1826.860595703125 4593.779296875 1827.00146484375 4593.79833984375 1827.160034179688 4593.8349609375 C 1835.890014648438 4595.865234375 1843.557983398438 4599.751953125 1849.246948242188 4606.86376953125 C 1857.232055664063 4616.84814453125 1856.922973632813 4629.26220703125 1848.423950195313 4638.93701171875 C 1846.969970703125 4640.5927734375 1846.321044921875 4642.171875 1846.4169921875 4644.34912109375 C 1846.578979492188 4647.97509765625 1846.461059570313 4651.61279296875 1846.461059570313 4655.64306640625 C 1844.14501953125 4653.046875 1842.008056640625 4650.79296875 1840.045043945313 4648.39501953125 C 1839.447143554688 4647.66455078125 1838.9248046875 4647.32421875 1838.282470703125 4647.32421875 M 1773.80126953125 4540.87158203125 C 1782.608032226563 4540.87158203125 1791.106689453125 4542.9384765625 1799.173950195313 4547.2919921875 C 1807.9580078125 4552.0322265625 1814.842041015625 4558.7021484375 1818.239013671875 4568.26708984375 C 1822.826049804688 4581.18505859375 1819.72802734375 4592.658203125 1810.625 4602.54296875 C 1802.762939453125 4611.080078125 1792.682983398438 4615.4951171875 1781.33203125 4617.14990234375 C 1778.597290039063 4617.54833984375 1775.885620117188 4617.74658203125 1773.197387695313 4617.74658203125 C 1765.936767578125 4617.74658203125 1758.848510742188 4616.30078125 1751.948974609375 4613.4541015625 C 1751.601318359375 4613.31103515625 1751.2998046875 4613.23291015625 1751.020874023438 4613.23291015625 C 1750.565795898438 4613.23291015625 1750.170654296875 4613.43994140625 1749.733032226563 4613.9072265625 C 1747.7919921875 4615.97607421875 1745.755004882813 4617.9541015625 1743.453002929688 4620.27294921875 C 1743.453002929688 4616.703125 1743.407958984375 4613.5849609375 1743.47802734375 4610.46923828125 C 1743.501953125 4609.3662109375 1743.172973632813 4608.6748046875 1742.264038085938 4608.009765625 C 1736.176025390625 4603.55419921875 1731.322021484375 4598.04296875 1728.64501953125 4590.9072265625 C 1723.996948242188 4578.51513671875 1726.483032226563 4567.287109375 1734.887939453125 4557.3720703125 C 1742.64794921875 4548.216796875 1752.920043945313 4543.408203125 1764.608032226563 4541.59619140625 C 1767.706420898438 4541.1162109375 1770.771362304688 4540.87158203125 1773.80126953125 4540.87158203125 M 1856.275024414063 4681.30615234375 L 1854.055297851563 4678.87646484375 C 1853.787963867188 4678.583984375 1853.547729492188 4678.322265625 1853.325927734375 4678.08056640625 C 1852.892822265625 4677.609375 1852.518920898438 4677.2021484375 1852.153930664063 4676.79248046875 C 1851.068603515625 4675.57568359375 1849.982666015625 4674.35888671875 1848.896728515625 4673.14208984375 C 1844.840209960938 4668.59716796875 1840.645751953125 4663.8974609375 1836.551391601563 4659.24462890625 C 1836.177856445313 4658.81982421875 1836.05859375 4658.81982421875 1835.987426757813 4658.81982421875 C 1835.900146484375 4658.81982421875 1835.7333984375 4658.84130859375 1835.434814453125 4658.9423828125 C 1828.856201171875 4661.17529296875 1822.317626953125 4662.3076171875 1816.001220703125 4662.30810546875 C 1811.02685546875 4662.30810546875 1806.079833984375 4661.60546875 1801.2978515625 4660.21923828125 C 1796.484008789063 4658.82421875 1791.712036132813 4656.69970703125 1787.114624023438 4653.9052734375 C 1776.731811523438 4647.59375 1770.537719726563 4638.69921875 1768.691650390625 4627.45556640625 C 1768.163208007813 4627.38525390625 1767.63525390625 4627.3173828125 1767.1181640625 4627.2509765625 C 1765.204223632813 4627.00439453125 1763.224975585938 4626.74951171875 1761.285400390625 4626.390625 C 1758.721557617188 4625.916015625 1756.306274414063 4625.31689453125 1754.107055664063 4624.60986328125 C 1753.83984375 4624.5234375 1753.617065429688 4624.47998046875 1753.444213867188 4624.47998046875 C 1753.239013671875 4624.47998046875 1752.994995117188 4624.5244140625 1752.473022460938 4625.05615234375 C 1748.5908203125 4629.00439453125 1744.60791015625 4632.97802734375 1740.756103515625 4636.8203125 C 1739.535034179688 4638.03857421875 1738.313842773438 4639.2568359375 1737.09375 4640.4765625 C 1736.86572265625 4640.7041015625 1736.632934570313 4640.9248046875 1736.338012695313 4641.20458984375 C 1736.18212890625 4641.3525390625 1736.005737304688 4641.51953125 1735.798583984375 4641.7177734375 L 1733.639038085938 4643.78271484375 L 1733.639038085938 4640.794921875 L 1733.639038085938 4639.06005859375 C 1733.639038085938 4637.1572265625 1733.637817382813 4635.25390625 1733.63671875 4633.35107421875 C 1733.633056640625 4627.2001953125 1733.629272460938 4620.83935546875 1733.666015625 4614.58154296875 C 1733.669677734375 4613.93212890625 1733.517944335938 4613.61279296875 1732.9892578125 4613.1572265625 C 1728.959838867188 4609.681640625 1725.632080078125 4605.8662109375 1723.098022460938 4601.81689453125 C 1720.398315429688 4597.50244140625 1718.514404296875 4592.7880859375 1717.498779296875 4587.8046875 C 1714.771606445313 4574.42529296875 1717.962890625 4562.19140625 1726.98388671875 4551.443359375 C 1731.23095703125 4546.38330078125 1736.284423828125 4542.19921875 1742.004150390625 4539.00732421875 C 1747.425415039063 4535.98193359375 1753.579956054688 4533.77294921875 1760.296875 4532.4423828125 C 1764.9169921875 4531.52685546875 1769.5107421875 4531.06298828125 1773.950317382813 4531.06298828125 C 1779.964721679688 4531.06298828125 1785.87744140625 4531.91357421875 1791.524169921875 4533.59130859375 C 1797.230834960938 4535.287109375 1802.807373046875 4537.86962890625 1808.098999023438 4541.26708984375 C 1813.284057617188 4544.59716796875 1817.627685546875 4548.5166015625 1821.00927734375 4552.9169921875 C 1824.566650390625 4557.54638671875 1827.154418945313 4562.8310546875 1828.700805664063 4568.62353515625 C 1830.008544921875 4573.52392578125 1830.403442382813 4578.46923828125 1829.87451171875 4583.322265625 C 1829.841674804688 4583.623046875 1829.816528320313 4583.93115234375 1829.795043945313 4584.22607421875 C 1830.543334960938 4584.4716796875 1831.291137695313 4584.70947265625 1832.021240234375 4584.94140625 C 1834.245239257813 4585.6484375 1836.544921875 4586.37939453125 1838.72607421875 4587.3056640625 C 1843.997192382813 4589.54443359375 1848.546630859375 4592.36572265625 1852.248291015625 4595.69091796875 C 1856.280151367188 4599.3125 1859.452758789063 4603.6591796875 1861.677734375 4608.6103515625 C 1862.646484375 4610.76708984375 1863.203735351563 4613.08349609375 1863.742797851563 4615.32373046875 C 1863.978759765625 4616.30517578125 1864.222778320313 4617.3193359375 1864.495361328125 4618.2890625 C 1864.571533203125 4618.55908203125 1864.634399414063 4618.82421875 1864.695068359375 4619.08056640625 C 1864.721923828125 4619.1943359375 1864.748779296875 4619.3076171875 1864.776733398438 4619.4208984375 L 1864.81396484375 4619.57177734375 L 1864.81396484375 4619.72705078125 L 1864.81396484375 4625.4189453125 L 1864.81396484375 4625.5390625 L 1864.79150390625 4625.65771484375 C 1864.71875 4626.0400390625 1864.646728515625 4626.43212890625 1864.5771484375 4626.81103515625 C 1864.427612304688 4627.62451171875 1864.27294921875 4628.46630859375 1864.096069335938 4629.2978515625 C 1862.97412109375 4634.5634765625 1860.614135742188 4639.4638671875 1856.881225585938 4644.2802734375 C 1856.553955078125 4644.70263671875 1856.314575195313 4645.38671875 1856.31201171875 4645.9072265625 C 1856.267333984375 4653.923828125 1856.2705078125 4662.07568359375 1856.2734375 4669.958984375 C 1856.274291992188 4671.99365234375 1856.275024414063 4674.0283203125 1856.275024414063 4676.06298828125 L 1856.275024414063 4678.01513671875 L 1856.275024414063 4681.30615234375 Z M 1838.282470703125 4646.046875 C 1839.619262695313 4646.046875 1840.49267578125 4646.92578125 1841.033325195313 4647.58642578125 C 1842.33740234375 4649.17919921875 1843.730346679688 4650.7197265625 1845.203002929688 4652.3427734375 C 1845.203857421875 4652.2509765625 1845.204711914063 4652.1591796875 1845.20556640625 4652.06787109375 C 1845.229736328125 4649.41015625 1845.252685546875 4646.89990234375 1845.141235351563 4644.40625 C 1845.033447265625 4641.958984375 1845.728149414063 4640.07177734375 1847.46435546875 4638.09423828125 C 1855.576538085938 4628.85986328125 1855.877319335938 4617.19873046875 1848.249633789063 4607.6611328125 C 1843.234619140625 4601.39208984375 1836.273193359375 4597.283203125 1826.970092773438 4595.10205078125 C 1826.58349609375 4596.1337890625 1826.115844726563 4597.17919921875 1825.541259765625 4598.29443359375 C 1824.009399414063 4601.27197265625 1822.200805664063 4604.07275390625 1820.165893554688 4606.61865234375 C 1818.192993164063 4609.08740234375 1815.94921875 4611.3896484375 1813.496948242188 4613.4609375 C 1808.868408203125 4617.37060546875 1803.269653320313 4620.6435546875 1796.856079101563 4623.18896484375 C 1791.694946289063 4625.236328125 1786.12353515625 4626.56103515625 1779.870239257813 4627.22412109375 C 1779.965942382813 4627.51025390625 1780.0595703125 4627.79345703125 1780.151977539063 4628.0732421875 C 1780.677612304688 4629.6640625 1781.174072265625 4631.1669921875 1781.841430664063 4632.54541015625 C 1784.911743164063 4638.88818359375 1790.156616210938 4643.75390625 1797.430419921875 4647.00732421875 C 1803.7001953125 4649.81103515625 1810.072021484375 4651.23291015625 1816.368896484375 4651.23291015625 C 1822.994262695313 4651.23291015625 1829.715698242188 4649.6591796875 1836.346557617188 4646.55517578125 C 1837.087280273438 4646.20849609375 1837.702514648438 4646.046875 1838.282470703125 4646.046875 Z M 1773.80126953125 4542.1484375 C 1770.868774414063 4542.1484375 1767.841552734375 4542.38720703125 1764.803588867188 4542.85791015625 C 1752.626708984375 4544.74609375 1742.889404296875 4549.90673828125 1735.862060546875 4558.19775390625 C 1727.525756835938 4568.03173828125 1725.499877929688 4578.88623046875 1729.840698242188 4590.458984375 C 1732.233520507813 4596.8369140625 1736.5439453125 4602.2412109375 1743.018188476563 4606.9794921875 C 1744.252319335938 4607.88232421875 1744.787963867188 4608.96728515625 1744.754760742188 4610.4970703125 C 1744.705810546875 4612.671875 1744.713500976563 4614.87109375 1744.722290039063 4617.1962890625 C 1746.152465820313 4615.76904296875 1747.507568359375 4614.4130859375 1748.8017578125 4613.03369140625 C 1749.480834960938 4612.30859375 1750.206909179688 4611.9560546875 1751.020874023438 4611.9560546875 C 1751.460571289063 4611.9560546875 1751.910034179688 4612.05712890625 1752.435424804688 4612.2734375 C 1759.183837890625 4615.05810546875 1766.1689453125 4616.4697265625 1773.197387695313 4616.4697265625 C 1775.817016601563 4616.4697265625 1778.491943359375 4616.2734375 1781.147827148438 4615.88623046875 C 1793.158569335938 4614.13525390625 1802.493408203125 4609.48779296875 1809.685668945313 4601.677734375 C 1818.814453125 4591.76513671875 1821.287353515625 4580.66796875 1817.03564453125 4568.6943359375 C 1813.986938476563 4560.10986328125 1807.945922851563 4553.4765625 1798.567504882813 4548.416015625 C 1790.860961914063 4544.25732421875 1782.528442382813 4542.1484375 1773.80126953125 4542.1484375 Z"/></g><path class="b" d="M1742.274,4573.3h13.358v13.52h-13.358Z"/><path class="b" d="M1766.534,4573.355h13.437v13.439h-13.437Z"/><path class="b" d="M1790.873,4586.805v-13.418h13.52v13.418Z"/></g></svg>