<svg xmlns="http://www.w3.org/2000/svg" width="136.18" height="136.161" viewBox="0 0 136.18 136.161"><defs><style>.a{fill:#fff;}.b{fill:#2fe6b0;}</style></defs><g transform="translate(-1722.595 -3895.277)"><path class="a" d="M1765.85,4006.645a8.234,8.234,0,0,1,.114.869c.005,3.764,0,7.528,0,11.457-.587.026-1.094.069-1.6.069q-11.382.006-22.763,0a18.536,18.536,0,0,1-18.975-18.845q-.064-30.666,0-61.331c.026-10.717,8.123-18.721,18.865-18.778,5.51-.03,11.02-.006,16.529-.006h1.715c0-2.192-.029-4.211.005-6.229a18.523,18.523,0,0,1,15.1-18.2,21.944,21.944,0,0,1,4.178-.356q11.672-.048,23.344-.013c11.218.015,19.252,8.061,19.282,19.3.005,1.775,0,3.551,0,5.5h1.721c5.461,0,10.922-.016,16.383,0,10.912.04,18.938,8.041,19.014,18.937.013,1.972,0,3.945,0,6.019h-12.4c0-1.971.007-3.936,0-5.9-.016-4.142-2.535-6.724-6.674-6.726q-49.007-.018-98.013,0c-4.13,0-6.663,2.595-6.67,6.73-.009,5.942,0,11.884,0,17.942h18.514v-6.011h12.331v24.565h-12.221v-5.991h-18.624v1.547q0,14.281,0,28.563c0,4.446,2.439,6.88,6.912,6.886q11.019.014,22.038,0Zm43.4-86.638c0-2.2.041-4.223-.01-6.247a6.092,6.092,0,0,0-6.123-6.061q-12.454-.062-24.91,0a5.627,5.627,0,0,0-5.758,4.566,54.07,54.07,0,0,0-.079,7.741Z"/><path class="b" d="M1858.764,3988.19a43.408,43.408,0,0,1-43.447,43.248c-23.69.071-43.178-19.489-43.183-43.345a43.315,43.315,0,1,1,86.63.1Zm-43.341-30.971a30.911,30.911,0,1,0,30.947,30.511A30.8,30.8,0,0,0,1815.423,3957.219Z"/><path class="b" d="M1831.96,3996.032l-8.712,8.74c-1.041-1.06-2.138-2.193-3.252-3.311-2.862-2.871-5.719-5.748-8.6-8.6a6.879,6.879,0,0,1-2.151-5.177c.033-5.982.012-11.964.012-18.053h12.321c.025.515.072,1.025.073,1.535.005,4.392-.037,8.784.043,13.175a3.436,3.436,0,0,0,.885,2.107C1825.669,3989.7,1828.846,3992.87,1831.96,3996.032Z"/></g></svg>