<svg xmlns="http://www.w3.org/2000/svg" width="122.48" height="122.519" viewBox="0 0 122.48 122.519"><defs><style>.a{fill:#fff;}.b{fill:#2fe6b0;}</style></defs><g transform="translate(-2251.462 -3907.686)"><path class="a" d="M2342.8,3915.78l-9.182,9.78c-12.734-5.867-25.668-6.569-38.679-1.384a47,47,0,0,0-23.393,19.75c-12.217,20.25-8.236,44.15,7.327,59.388a47.809,47.809,0,0,0,60.708,5.668c17.572-11.753,28.1-36.251,16.3-61.617,2.651-3.594,5.416-7.34,8.232-11.157,15.428,22.991,12.92,56.218-9.134,77.1a61.248,61.248,0,0,1-93.465-77.939C2279.594,3908.22,2314.8,3899.725,2342.8,3915.78Z"/><path class="b" d="M2372.465,3910.319l-62.7,84.28-26.5-42.081,14.617-.122,12.035,7.642a26.986,26.986,0,0,0,2.145-1.648c1.713-1.633,3.368-3.326,5.069-4.972q12.492-12.085,25-24.155c5.873-5.659,11.815-11.247,17.632-16.962a6.745,6.745,0,0,1,5.654-2.288C2367.675,3910.215,2369.952,3910.219,2372.465,3910.319Z"/><path class="a" d="M2309.229,3935.236v-7.12a3.184,3.184,0,0,1,3.193-1.862c1.492.006,2.836.118,3.719,1.791v7.081C2313.126,3937.34,2312.591,3937.355,2309.229,3935.236Z"/><path class="a" d="M2309.339,4002.4c1.975-1.472,3.946-.834,6.126-.779,1.5,2.926.582,5.931.672,8.936a6.609,6.609,0,0,1-6.8.147Z"/><path class="a" d="M2270.2,3971.787v-5.1c.739-.4,1.626-1.3,2.487-1.274,2.373.063,4.921-.83,7.235.845.159,2,.672,3.956-.712,6.1C2276.354,3972.339,2273.367,3972.97,2270.2,3971.787Z"/><path class="a" d="M2354.558,3972.227a26.759,26.759,0,0,1-8.7-.161,9.393,9.393,0,0,1-.148-6.272,16.611,16.611,0,0,1,2.616-.441,37.244,37.244,0,0,1,5.276.215c.576.074,1.063.838,1.637,1.325C2355.24,3968.67,2355.689,3970.427,2354.558,3972.227Z"/></g></svg>