<svg xmlns="http://www.w3.org/2000/svg" width="155.102" height="178.158" viewBox="0 0 155.102 178.158"><defs><style>.a{fill:#fff;stroke:rgba(0,0,0,0);stroke-miterlimit:10;}</style></defs><g transform="translate(0.593 0.483)"><path class="a" d="M-2421.045-2062.8a76.327,76.327,0,0,1,64.5-88.027c1.633-.236,2.236-.8,2.1-2.408-.111-1.337-.023-2.69-.023-4.333-1.867,0-3.465.037-5.06-.007-2.559-.07-3.667-1.065-3.713-3.529-.071-3.757-.026-7.515-.013-11.272.008-2.311,1.255-3.486,3.5-3.493q14.09-.04,28.178,0c2.252.005,3.522,1.144,3.543,3.451.032,3.756.075,7.515.005,11.27-.046,2.488-1.139,3.49-3.683,3.569-1.6.05-3.2.01-4.949.01v6.281c2.355.455,4.769.876,7.164,1.385a76.292,76.292,0,0,1,59.814,66.377,76.416,76.416,0,0,1-63.307,83.724,75.332,75.332,0,0,1-12.754,1.09C-2382.35-1998.706-2415.085-2025.532-2421.045-2062.8Zm12.769-12.665a62.65,62.65,0,0,0,62.454,62.944,62.639,62.639,0,0,0,62.827-62.566,62.7,62.7,0,0,0-62.582-62.838h-.052A62.689,62.689,0,0,0-2408.276-2075.462Zm52.736,51.041a51.667,51.667,0,0,1-41.2-59.264c5.222-30.552,32.612-44.122,51.023-42.911v34.175c0,4.8-.009,9.6-.048,14.395a7.828,7.828,0,0,0,.048.913v53.484q-.6.014-1.195.014A44.856,44.856,0,0,1-2355.54-2024.421Zm53.223-123.062-.05-.043,11.3-12.958,22.831,19.91-11.22,12.866A76.513,76.513,0,0,0-2302.316-2147.483Z" transform="translate(2422.037 2175.883)"/></g></svg>